# Blender v2.79 (sub 0) OBJ File: 'untitled.blend'
# www.blender.org
mtllib cube_simpte.mtl
o cube_medium
v -0.460000 -0.460000 -0.500000
v -0.460000 -0.500000 -0.460000
v -0.500000 -0.460000 -0.460000
v -0.500000 -0.460000 0.460000
v -0.460000 -0.500000 0.460000
v -0.460000 -0.460000 0.500000
v -0.460000 0.460000 -0.500000
v -0.500000 0.460000 -0.460000
v -0.460000 0.500000 -0.460000
v 0.460000 -0.500000 -0.460000
v 0.460000 -0.460000 -0.500000
v 0.500000 -0.460000 -0.460000
v -0.460000 0.500000 0.460000
v -0.500000 0.460000 0.460000
v -0.460000 0.460000 0.500000
v 0.460000 -0.460000 0.500000
v 0.460000 -0.500000 0.460000
v 0.500000 -0.460000 0.460000
v 0.460000 0.460000 -0.500000
v 0.460000 0.500000 -0.460000
v 0.500000 0.460000 -0.460000
v 0.500000 0.460000 0.460000
v 0.460000 0.500000 0.460000
v 0.460000 0.460000 0.500000
vn -0.5774 -0.5774 -0.5774
vn -0.5773 -0.5774 0.5773
vn -0.5773 0.5774 -0.5773
vn 0.5774 -0.5774 -0.5774
vn -0.5774 0.5774 0.5774
vn 0.5773 -0.5774 0.5773
vn 0.5773 0.5774 -0.5773
vn 0.7071 0.0000 -0.7071
vn 0.0000 0.7071 -0.7071
vn 0.5774 0.5774 0.5774
vn 0.7071 -0.0000 0.7071
vn 0.7071 0.7071 0.0000
vn 0.0000 0.7071 0.7071
vn 0.0000 -0.7071 0.7071
vn 0.7071 -0.7071 -0.0000
vn -0.7071 0.7071 0.0000
vn -0.7071 -0.0000 0.7071
vn 0.0000 -0.7071 -0.7071
vn -0.7071 0.0000 -0.7071
vn -0.7071 -0.7071 -0.0000
vn 0.0000 0.0000 -1.0000
vn 0.0000 1.0000 0.0000
vn 0.0000 -0.0000 1.0000
vn 1.0000 0.0000 0.0000
vn 0.0000 -1.0000 -0.0000
vn -1.0000 0.0000 0.0000
usemtl Material.002
s off
f 1//1 2//1 3//1
f 4//2 5//2 6//2
f 7//3 8//3 9//3
f 10//4 11//4 12//4
f 13//5 14//5 15//5
f 16//6 17//6 18//6
f 19//7 20//7 21//7
f 21//8 12//8 11//8
f 19//8 21//8 11//8
f 20//9 19//9 7//9
f 9//9 20//9 7//9
f 22//10 23//10 24//10
f 18//11 22//11 24//11
f 16//11 18//11 24//11
f 21//12 20//12 23//12
f 22//12 21//12 23//12
f 13//13 15//13 24//13
f 23//13 13//13 24//13
f 17//14 16//14 6//14
f 5//14 17//14 6//14
f 10//15 12//15 18//15
f 17//15 10//15 18//15
f 9//16 8//16 14//16
f 13//16 9//16 14//16
f 14//17 4//17 6//17
f 15//17 14//17 6//17
f 2//18 1//18 11//18
f 10//18 2//18 11//18
f 3//19 8//19 7//19
f 1//19 3//19 7//19
f 3//20 2//20 5//20
f 4//20 3//20 5//20
f 19//21 11//21 1//21
f 7//21 19//21 1//21
f 20//22 9//22 13//22
f 23//22 20//22 13//22
f 16//23 24//23 15//23
f 6//23 16//23 15//23
f 22//24 18//24 12//24
f 21//24 22//24 12//24
f 17//25 5//25 2//25
f 10//25 17//25 2//25
f 4//26 14//26 8//26
f 3//26 4//26 8//26
